/* XPM */
static char * pixmap[] = {
/* width height num_colors chars_per_pixel */
"32 32 323 4",
/* colors */
"     c None",
"!    c #d9d9d9",
"#    c #d7d7d7",
"$    c #c5c1c1",
"%    c #c1c1c1",
"&    c #bababa",
"'    c #ba9a9a",
"(    c #ba7722",
")    c #b97722",
"*    c #b8b9b8",
"+    c #b87622",
",    c #b27221",
"-    c #b27220",
".    c #b17120",
"/    c #afafaf",
"0    c #ae6f20",
"1    c #ad8d8d",
"2    c #ab6e1f",
"3    c #ab6d1f",
"4    c #aa6d1f",
"5    c #a9a9a9",
"6    c #a96c1e",
"7    c #a8a5a5",
"8    c #a7a7a7",
"9    c #a76b1e",
":    c #a6a6a6",
";    c #a69e9e",
"<    c #a66a1e",
"=    c #a5a5a5",
">    c #a5691e",
"?    c #a4a4a4",
"@    c #a4691d",
"A    c #a3681d",
"B    c #a2a2a2",
"C    c #a2681d",
"D    c #a1671d",
"E    c #9f9f9f",
"F    c #9f661c",
"G    c #9f651c",
"H    c #9e651d",
"I    c #9e651c",
"J    c #9d9d9d",
"K    c #9d9696",
"L    c #9c641b",
"M    c #9c631b",
"N    c #9b9b9b",
"O    c #9b631c",
"P    c #9b631b",
"Q    c #9a621b",
"R    c #999999",
"S    c #98611a",
"T    c #97601a",
"U    c #96601a",
"V    c #955f1a",
"W    c #949494",
"X    c #945f1a",
"Y    c #945e1a",
"Z    c #945e19",
"[    c #935e19",
"]    c #925c1a",
"^    c #915c19",
"_    c #8e5a18",
"`    c #8d5a18",
"a    c #8d5918",
"b    c #8c8c8c",
"c    c #8c5917",
"d    c #8c0f0f",
"e    c #8b591a",
"f    c #8b5818",
"g    c #8b0f0f",
"h    c #8a5717",
"i    c #875617",
"j    c #865618",
"k    c #865516",
"l    c #861010",
"m    c #855516",
"n    c #855416",
"o    c #855218",
"p    c #851010",
"q    c #850f0f",
"r    c #841010",
"s    c #835417",
"t    c #835315",
"u    c #831010",
"v    c #815317",
"w    c #811010",
"x    c #805217",
"y    c #805115",
"z    c #801010",
"{    c #7f5115",
"|    c #7f5015",
"}    c #7f1010",
"~    c #7e5014",
" !   c #7d5016",
"!!   c #7d1010",
"#!   c #7c4f14",
"$!   c #7b4f16",
"%!   c #7b4e16",
"&!   c #7b4415",
"'!   c #7b1110",
"(!   c #794d15",
")!   c #794d13",
"*!   c #794c13",
"+!   c #791111",
",!   c #784c13",
"-!   c #781111",
".!   c #771111",
"/!   c #771010",
"0!   c #764e4e",
"1!   c #764a12",
"2!   c #761111",
"3!   c #761010",
"4!   c #754b15",
"5!   c #754b14",
"6!   c #741111",
"7!   c #734812",
"8!   c #724812",
"9!   c #721111",
":!   c #714711",
";!   c #711010",
"<!   c #704814",
"=!   c #704713",
">!   c #701111",
"?!   c #6f4713",
"@!   c #6f4613",
"A!   c #6f4611",
"B!   c #6f1111",
"C!   c #6e6262",
"D!   c #6e4511",
"E!   c #6e3913",
"F!   c #6d2311",
"G!   c #6d1212",
"H!   c #6d1111",
"I!   c #6c4410",
"J!   c #6c2311",
"K!   c #6c1212",
"L!   c #6c0b0b",
"M!   c #6b4412",
"N!   c #6b4410",
"O!   c #6b4310",
"P!   c #6b1212",
"Q!   c #6a4312",
"R!   c #6a4310",
"S!   c #6a130e",
"T!   c #6a1212",
"U!   c #6a0c0c",
"V!   c #694312",
"W!   c #69420f",
"X!   c #684211",
"Y!   c #68410f",
"Z!   c #680e0e",
"[!   c #674212",
"]!   c #674110",
"^!   c #664111",
"_!   c #66400f",
"`!   c #661010",
"a!   c #660c0c",
"b!   c #654011",
"c!   c #653f0f",
"d!   c #653f0e",
"e!   c #651212",
"f!   c #651010",
"g!   c #643f11",
"h!   c #643f0e",
"i!   c #64110f",
"j!   c #641010",
"k!   c #640e0e",
"l!   c #640d0d",
"m!   c #633e0e",
"n!   c #632210",
"o!   c #623d0e",
"p!   c #621d0f",
"q!   c #621010",
"r!   c #620c0c",
"s!   c #613d11",
"t!   c #613d10",
"u!   c #611212",
"v!   c #603d0f",
"w!   c #603c0e",
"x!   c #603c0d",
"y!   c #602d10",
"z!   c #5f3d11",
"{!   c #5f3c11",
"|!   c #5f3c10",
"}!   c #5f3c0f",
"~!   c #5f3b0d",
" #   c #5f1111",
"!#   c #5e3c0f",
"##   c #5e3a0d",
"$#   c #5e0f0f",
"%#   c #5d2a2a",
"&#   c #5c3a0f",
"'#   c #5c3a0d",
"(#   c #5c390c",
")#   c #5c1212",
"*#   c #5c0a0a",
"+#   c #5b3a0e",
",#   c #5b390e",
"-#   c #5b390c",
".#   c #5b380c",
"/#   c #5b0c0c",
"0#   c #5a390f",
"1#   c #5a390e",
"2#   c #5a390d",
"3#   c #5a1a0f",
"4#   c #59390f",
"5#   c #59370c",
"6#   c #57370e",
"7#   c #570909",
"8#   c #56360d",
"9#   c #561010",
":#   c #560c0c",
";#   c #55360e",
"<#   c #55350b",
"=#   c #55340b",
">#   c #550909",
"?#   c #54350e",
"@#   c #54350d",
"A#   c #54350c",
"B#   c #54340b",
"C#   c #53340d",
"D#   c #530d0d",
"E#   c #530b0b",
"F#   c #52340d",
"G#   c #51340e",
"H#   c #51330d",
"I#   c #51330c",
"J#   c #510909",
"K#   c #4f330e",
"L#   c #4f320c",
"M#   c #4f310a",
"N#   c #4e310c",
"O#   c #4e0a0a",
"P#   c #4d310d",
"Q#   c #4d0d0d",
"R#   c #4c300c",
"S#   c #4c2f0b",
"T#   c #4c0e0e",
"U#   c #4b2f0c",
"V#   c #4a2f0b",
"W#   c #492f0d",
"X#   c #492e0c",
"Y#   c #492e0a",
"Z#   c #482d0c",
"[#   c #482d09",
"]#   c #472c09",
"^#   c #470b0b",
"_#   c #470808",
"`#   c #452c0c",
"a#   c #452c0b",
"b#   c #452b09",
"c#   c #441a0c",
"d#   c #432a0b",
"e#   c #432a09",
"f#   c #422a0b",
"g#   c #422909",
"h#   c #402808",
"i#   c #3d270a",
"j#   c #3d260a",
"k#   c #3c260a",
"l#   c #3c2509",
"m#   c #3b260a",
"n#   c #390c0c",
"o#   c #382307",
"p#   c #382207",
"q#   c #380c0c",
"r#   c #372207",
"s#   c #370a0a",
"t#   c #350707",
"u#   c #340908",
"v#   c #332008",
"w#   c #322008",
"x#   c #320909",
"y#   c #320808",
"z#   c #320505",
"{#   c #301e07",
"|#   c #301d06",
"}#   c #2f0606",
"~#   c #2e0909",
" $   c #291a07",
"!$   c #281906",
"#$   c #271805",
"$$   c #251705",
"%$   c #251704",
"&$   c #250808",
"'$   c #241604",
"($   c #240707",
")$   c #231504",
"*$   c #211505",
"+$   c #201404",
",$   c #1e1305",
"-$   c #1d1313",
".$   c #1d1205",
"/$   c #1c1204",
"0$   c #1b1104",
"1$   c #191004",
"2$   c #190404",
"3$   c #160303",
"4$   c #151515",
"5$   c #150e04",
"6$   c #150d04",
"7$   c #140d03",
"8$   c #120c03",
"9$   c #110b03",
":$   c #0e0e0e",
";$   c #0e0902",
"<$   c #0c0701",
"=$   c #0a0602",
">$   c #090602",
"?$   c #090601",
"@$   c #090501",
"A$   c #080501",
"B$   c #070501",
"C$   c #070401",
"D$   c #070101",
"E$   c #060401",
"F$   c #050301",
"G$   c #050101",
"H$   c #030200",
"I$   c #030000",
"J$   c #010101",
"K$   c #010100",
"L$   c #000000",
/* pixels */
"                                                                                                                                ",
"                                                                                                                                ",
"                                                                                                                                ",
"                                                            4$  W   ?   =   =   :   b   J$                                      ",
"                                                        :$  8   /   &   *   /   !   R                                           ",
"                                                L$  &$  C!  '   $   &   =   #   ;   q#  n#  n#  n#  n#  n#  n#  n#  ($  3$      ",
"                                        D$  s#  T#  )#  K   1   7   N   8   %   0!  u!  u!  u!  u!  u!  u!  9#  Q#  q!  u#      ",
"                                2$  ^#  $#  P!  P!  %#  J   E   B   ?   :   5   -$  y#  j!  K!  G!  `!  D#  k!  >!  T!  x#      ",
"                    L$  }#  :#  ;!  .!  .!  .!  ;!  k!  f!  f!  f!  f!  `!  `!  Z!  -!  -!  3!  /#  l!  +!  9!  K!  e!  ~#      ",
"            G$  _#  a!  u   r   r   r   r   r   r   r   r   r   p   p   p   p   p   r   a!  a!  w   '!  6!  H!   #  c#  I$      ",
"        z#  7#  L!  L!  L!  L!  L!  L!  L!  L!  L!  L!  L!  L!  L!  L!  L!  L!  L!  *#  q   r   !!  2!  B!  3#  o   $!          ",
"        >#  d   d   d   g   g   g   g   g   g   g   g   g   g   g   g   g   g   g   U!  l   }   -!  i!  E!  >   <   4!          ",
"        J#  l   l   l   p   p   p   p   p   p   p   p   p   p   p   p   p   p   p   a!  w   /!  n!  ]   6   @   G   <!          ",
"        O#  z   z   z   }   }   }   }   }   }   }   }   }   }   }   }   }   }   }   r!  S!  &!  2   I   z!  s   T   M!          ",
"        t#  E#  J!  F!  F!  F!  F!  F!  F!  F!  J!  J!  J!  J!  J!  J!  J!  J!  p!  y!  H   3   F   W#  (!  i#  f   ^!          ",
"            >$  +   (   (   )   (   )   )   )   )   )   )   )   )   )   )   )   e   0   6   A   {!  i   ?#  @!  t!  t!          ",
"            @$  .   ,   ,   ,   ,   ,   -   ,   -   -   -   -   -   -   -   -   j   9   D   U   m#  5$  L$  Z#  F#  &#          ",
"            A$  4   3   3   3   3   3   3   3   3   3   3   3   4   4   4   4   x   F   Q   V!  4#  `#  L$  k#  H#  6#          ",
"            A$  C   @   @   @   [!  .$  6$  6$  6$  6$  6$  6$  O   A   A   A   %!  S   [   |!  g!  0#  L$  H#  N#  C#          ",
"            B$  P   L   L   v   1$  f#  8$  G#  f#  K$  K#  P#  T   M   M   M   5!  ^   c   0#  }!  d#  0$  O!  I#  N#          ",
"            C$  Z   V   V   s!  i    !   $  V   ?!  =$  V   X   V   X   X   Y   =!  h   n   ;#  1#  *$  ]!  L#  o!  Y#          ",
"            C$  a   _   _   `   `   X!  w#  `   |!  9$  `   `   `   `   `   `   Q!  t   ~   N#  @#  8#  O!  g#  o!  b#          ",
"            E$  m   k   k   k   k   U#  j#  k   F#  7$  k   k   k   k   k   k   b!  #!  ,!  a#  I#  W!  2#  e#  -#  h#          ",
"            E$  |   y   y   y   y   ,$  X#  y   R#  ;$  y   !#  |   {   {   {   v!  1!  :!  l#  A#  w!  {#  5#  B#  |#          ",
"            E$  ,!  )!  )!  )!  R#  L$  +#  *!  @#  L$  v#  /$  *!  *!  *!  *!  ,#  A!  O!  '#  +$  $$  M#  [#  %$  L$          ",
"            F$  8!  7!  7!  7!  !$  7$  :!  7!  D!  7$  H$  V#  8!  8!  8!  8!  8#  W!  h!  x!  .#  =#  p#  ;$                  ",
"            F$  N!  I!  I!  I!  O!  R!  I!  I!  I!  O!  Y!  I!  I!  I!  I!  I!  I#  m!  ##  5#  [#  '$  L$                      ",
"            F$  d!  _!  _!  _!  _!  _!  _!  _!  c!  d!  c!  c!  d!  d!  d!  d!  S#  (#  <#  r#  <$                              ",
"            F$  ~!  ~!  ~!  ~!  ~!  ~!  ~!  ~!  ~!  ~!  ~!  ~!  ~!  ~!  ~!  ~!  ]#  [#  )$  L$                                  ",
"            H$  o#  o#  o#  o#  o#  o#  o#  o#  o#  o#  o#  o#  o#  o#  o#  o#  #$  ?$                                          ",
"                                                                                                                                ",
"                                                                                                                                "
};
